<svg width="60" height="65" viewBox="0 0 60 65" fill="none" xmlns="http://www.w3.org/2000/svg">
<path d="M6.94958 64.9536C5.15652 64.9536 3.62155 64.3144 2.34467 63.0361C1.06779 61.7577 0.429352 60.221 0.429352 58.4258V12.7314C0.429352 10.9362 1.06779 9.39948 2.34467 8.12112C3.62155 6.84277 5.15652 6.20359 6.94958 6.20359H20.6421C21.3484 4.24526 22.5302 2.66771 24.1874 1.47095C25.8447 0.274191 27.7057 -0.324188 29.7704 -0.324188C31.8351 -0.324188 33.6961 0.274191 35.3533 1.47095C37.0106 2.66771 38.1924 4.24526 38.8987 6.20359H52.5912C54.3843 6.20359 55.9192 6.84277 57.1961 8.12112C58.473 9.39948 59.1114 10.9362 59.1114 12.7314V58.4258C59.1114 60.221 58.473 61.7577 57.1961 63.0361C55.9192 64.3144 54.3843 64.9536 52.5912 64.9536H6.94958ZM6.94958 58.4258H52.5912V12.7314H6.94958V58.4258ZM13.4698 51.898H36.2906V45.3703H13.4698V51.898ZM13.4698 38.8425H46.071V32.3147H13.4698V38.8425ZM13.4698 25.7869H46.071V19.2591H13.4698V25.7869ZM29.7704 10.2835C30.4768 10.2835 31.0609 10.0523 31.5227 9.58987C31.9846 9.12749 32.2155 8.54271 32.2155 7.83553C32.2155 7.12836 31.9846 6.54358 31.5227 6.08119C31.0609 5.61881 30.4768 5.38762 29.7704 5.38762C29.064 5.38762 28.4799 5.61881 28.0181 6.08119C27.5562 6.54358 27.3253 7.12836 27.3253 7.83553C27.3253 8.54271 27.5562 9.12749 28.0181 9.58987C28.4799 10.0523 29.064 10.2835 29.7704 10.2835Z" fill="#1C1B1F"/>
</svg>
