<svg width="39" height="39" viewBox="0 0 39 39" fill="none" xmlns="http://www.w3.org/2000/svg">
<path d="M14.3447 38.2502L13.5947 32.2502C13.1885 32.094 12.8057 31.9065 12.4463 31.6877C12.0869 31.469 11.7354 31.2346 11.3916 30.9846L5.81348 33.3283L0.657227 24.4221L5.48535 20.7658C5.4541 20.5471 5.43848 20.3362 5.43848 20.133V18.8674C5.43848 18.6643 5.4541 18.4533 5.48535 18.2346L0.657227 14.5783L5.81348 5.67209L11.3916 8.01584C11.7354 7.76584 12.0947 7.53146 12.4697 7.31271C12.8447 7.09396 13.2197 6.90646 13.5947 6.75021L14.3447 0.750214H24.6572L25.4072 6.75021C25.8135 6.90646 26.1963 7.09396 26.5557 7.31271C26.915 7.53146 27.2666 7.76584 27.6104 8.01584L33.1885 5.67209L38.3447 14.5783L33.5166 18.2346C33.5479 18.4533 33.5635 18.6643 33.5635 18.8674V20.133C33.5635 20.3362 33.5322 20.5471 33.4697 20.7658L38.2979 24.4221L33.1416 33.3283L27.6104 30.9846C27.2666 31.2346 26.9072 31.469 26.5322 31.6877C26.1572 31.9065 25.7822 32.094 25.4072 32.2502L24.6572 38.2502H14.3447ZM19.5947 26.0627C21.4072 26.0627 22.9541 25.4221 24.2354 24.1408C25.5166 22.8596 26.1572 21.3127 26.1572 19.5002C26.1572 17.6877 25.5166 16.1408 24.2354 14.8596C22.9541 13.5783 21.4072 12.9377 19.5947 12.9377C17.751 12.9377 16.1963 13.5783 14.9307 14.8596C13.665 16.1408 13.0322 17.6877 13.0322 19.5002C13.0322 21.3127 13.665 22.8596 14.9307 24.1408C16.1963 25.4221 17.751 26.0627 19.5947 26.0627ZM19.5947 22.3127C18.8135 22.3127 18.1494 22.0393 17.6025 21.4924C17.0557 20.9455 16.7822 20.2815 16.7822 19.5002C16.7822 18.719 17.0557 18.0549 17.6025 17.508C18.1494 16.9612 18.8135 16.6877 19.5947 16.6877C20.376 16.6877 21.04 16.9612 21.5869 17.508C22.1338 18.0549 22.4072 18.719 22.4072 19.5002C22.4072 20.2815 22.1338 20.9455 21.5869 21.4924C21.04 22.0393 20.376 22.3127 19.5947 22.3127ZM17.626 34.5002H21.3291L21.9854 29.5315C22.9541 29.2815 23.8525 28.9143 24.6807 28.4299C25.5088 27.9455 26.2666 27.3596 26.9541 26.6721L31.5947 28.594L33.4229 25.4065L29.3916 22.3596C29.5479 21.9221 29.6572 21.4612 29.7197 20.9768C29.7822 20.4924 29.8135 20.0002 29.8135 19.5002C29.8135 19.0002 29.7822 18.508 29.7197 18.0237C29.6572 17.5393 29.5479 17.0783 29.3916 16.6408L33.4229 13.594L31.5947 10.4065L26.9541 12.3752C26.2666 11.6565 25.5088 11.0549 24.6807 10.5705C23.8525 10.0862 22.9541 9.71896 21.9854 9.46896L21.376 4.50021H17.6729L17.0166 9.46896C16.0479 9.71896 15.1494 10.0862 14.3213 10.5705C13.4932 11.0549 12.7354 11.6408 12.0479 12.3283L7.40723 10.4065L5.5791 13.594L9.61035 16.594C9.4541 17.0627 9.34473 17.5315 9.28223 18.0002C9.21973 18.469 9.18848 18.969 9.18848 19.5002C9.18848 20.0002 9.21973 20.4846 9.28223 20.9533C9.34473 21.4221 9.4541 21.8908 9.61035 22.3596L5.5791 25.4065L7.40723 28.594L12.0479 26.6252C12.7354 27.344 13.4932 27.9455 14.3213 28.4299C15.1494 28.9143 16.0479 29.2815 17.0166 29.5315L17.626 34.5002Z" fill="#1C1B1F"/>
</svg>
